<?xml version="1.0" standalone="no"?>
<!DOCTYPE svg PUBLIC "-//W3C//DTD SVG 20010904//EN"
 "http://www.w3.org/TR/2001/REC-SVG-20010904/DTD/svg10.dtd">
<svg version="1.0" xmlns="http://www.w3.org/2000/svg"
 width="204.000000pt" height="192.000000pt" viewBox="0 0 204.000000 192.000000"
 preserveAspectRatio="xMidYMid meet">

<g transform="translate(0.000000,192.000000) scale(0.100000,-0.100000)"
fill="#000000" stroke="none">
<path d="M861 1834 c-101 -18 -246 -76 -332 -135 -166 -111 -309 -304 -353
-476 -19 -74 -20 -82 -3 -58 13 17 14 17 20 -6 4 -13 2 -25 -3 -27 -13 -5 6
-41 37 -69 13 -13 26 -23 27 -23 2 0 24 -19 48 -42 25 -24 61 -58 81 -76 20
-19 37 -38 37 -43 0 -5 11 -14 25 -19 14 -5 25 -16 25 -25 0 -8 6 -14 13 -12
9 1 13 66 17 264 l5 261 30 43 c19 27 50 54 84 71 l53 28 348 0 348 0 53 -28
c34 -17 65 -44 84 -71 l30 -43 3 -366 c2 -231 -1 -380 -7 -402 -13 -44 -74
-107 -126 -131 -35 -16 -70 -19 -260 -19 -123 -1 -211 -5 -200 -10 18 -7 16
-8 -10 -12 l-30 -5 28 -2 c15 0 27 -5 27 -11 0 -5 4 -9 8 -7 8 2 56 -42 177
-163 39 -39 68 -50 80 -30 10 16 25 12 25 -6 0 -11 6 -15 20 -11 11 3 20 1 20
-4 0 -13 -40 -31 -56 -25 -9 3 -12 1 -9 -4 3 -6 14 -10 23 -10 13 0 13 -2 -4
-15 -49 -37 53 -4 201 66 22 10 72 43 110 72 251 192 381 508 339 824 -17 128
-36 189 -92 295 -50 97 -148 222 -164 212 -6 -4 -8 -2 -5 4 13 21 -138 132
-248 181 -157 71 -352 95 -524 65z m659 -388 c0 -2 -7 -7 -16 -10 -8 -3 -12
-2 -9 4 6 10 25 14 25 6z"/>
<path d="M652 1370 c-60 -37 -62 -54 -61 -412 1 -185 5 -306 9 -283 4 22 5 44
2 49 -3 5 0 6 6 2 7 -4 12 -16 12 -27 0 -10 3 -18 8 -18 4 1 26 1 50 0 36 -1
42 -4 43 -23 0 -13 3 -17 6 -10 2 6 9 10 14 6 5 -3 -1 -14 -13 -23 l-22 -18
21 -11 c11 -6 22 -9 25 -7 3 3 10 -6 16 -20 11 -23 9 -25 -21 -34 -21 -6 73
-9 288 -10 l320 -1 37 25 c25 17 41 38 48 63 8 24 10 146 8 362 -3 307 -4 326
-23 352 -44 58 -43 58 -407 58 -316 0 -335 -1 -366 -20z m708 -80 c11 -11 20
-27 20 -36 0 -19 -19 -56 -34 -66 -19 -13 -59 -9 -78 9 -22 20 -24 76 -2 97
22 22 70 20 94 -4z m-233 -76 c64 -27 102 -62 135 -127 25 -51 31 -74 31 -127
-1 -285 -379 -380 -513 -128 -29 53 -34 73 -34 128 0 55 5 75 34 128 68 129
213 181 347 126z"/>
<path d="M945 1121 c-185 -85 -102 -367 100 -337 60 9 106 43 132 96 27 56 28
96 4 152 -22 50 -43 71 -94 93 -48 20 -93 19 -142 -4z"/>
<path d="M1218 163 c7 -3 16 -2 19 1 4 3 -2 6 -13 5 -11 0 -14 -3 -6 -6z"/>
</g>
</svg>
