<?xml version="1.0" standalone="no"?>
<!DOCTYPE svg PUBLIC "-//W3C//DTD SVG 20010904//EN"
 "http://www.w3.org/TR/2001/REC-SVG-20010904/DTD/svg10.dtd">
<svg version="1.0" xmlns="http://www.w3.org/2000/svg"
 width="204.000000pt" height="192.000000pt" viewBox="0 0 204.000000 192.000000"
 preserveAspectRatio="xMidYMid meet">

<g transform="translate(0.000000,192.000000) scale(0.100000,-0.100000)"
fill="#000000" stroke="none">
<path d="M440 1624 c-37 -16 -65 -44 -81 -83 -6 -14 -10 -242 -10 -589 l1
-565 24 -37 c50 -76 33 -74 651 -74 548 -1 550 -1 591 21 29 16 48 36 63 66
21 44 21 50 19 610 -3 553 -3 566 -24 593 -11 15 -33 37 -48 48 -27 21 -39 21
-589 23 -483 2 -567 0 -597 -13z m356 -300 c48 -13 61 -99 22 -141 -15 -16
-33 -23 -59 -23 -52 0 -79 30 -79 86 0 64 48 96 116 78z m232 -131 c-10 -2
-26 -2 -35 0 -10 3 -2 5 17 5 19 0 27 -2 18 -5z m119 -9 c-3 -3 -12 -4 -19 -1
-8 3 -5 6 6 6 11 1 17 -2 13 -5z m-210 -10 c-3 -3 -12 -4 -19 -1 -8 3 -5 6 6
6 11 1 17 -2 13 -5z m121 -5 c-2 -6 -7 -10 -11 -10 -4 1 -14 1 -23 1 -8 0 -12
5 -9 10 8 13 48 13 43 -1z m135 4 c-7 -2 -19 -2 -25 0 -7 3 -2 5 12 5 14 0 19
-2 13 -5z m44 1 c-3 -3 -12 -4 -19 -1 -8 3 -5 6 6 6 11 1 17 -2 13 -5z m-109
-37 c-1 -1 -18 -10 -37 -21 -27 -15 -35 -16 -41 -5 -12 18 -4 27 33 43 27 11
33 11 40 -1 5 -8 7 -15 5 -16z m80 16 c-10 -2 -26 -2 -35 0 -10 3 -2 5 17 5
19 0 27 -2 18 -5z m-205 -10 c-18 -2 -48 -2 -65 0 -18 2 -4 4 32 4 36 0 50 -2
33 -4z m274 -34 c30 -15 50 -34 66 -63 20 -37 22 -57 25 -233 l4 -193 -70 0
-70 0 -4 159 c-4 186 -10 201 -83 201 -73 0 -79 -15 -83 -201 l-3 -159 -70 0
-69 0 0 108 c-1 124 -16 349 -26 375 -5 15 2 17 69 17 78 0 93 -9 81 -47 -4
-13 0 -11 15 6 45 51 146 65 218 30z m-420 -239 l-2 -250 -87 0 -88 0 0 250 0
250 90 0 89 0 -2 -250z m20 228 c-3 -8 -6 -5 -6 6 -1 11 2 17 5 13 3 -3 4 -12
1 -19z m281 -306 c-2 -14 -8 -27 -14 -29 -12 -4 -27 53 -18 69 10 16 35 -14
32 -40z"/>
</g>
</svg>
