<?xml version="1.0" standalone="no"?>
<!DOCTYPE svg PUBLIC "-//W3C//DTD SVG 20010904//EN"
 "http://www.w3.org/TR/2001/REC-SVG-20010904/DTD/svg10.dtd">
<svg version="1.0" xmlns="http://www.w3.org/2000/svg"
 width="204.000000pt" height="192.000000pt" viewBox="0 0 204.000000 192.000000"
 preserveAspectRatio="xMidYMid meet">

<g transform="translate(0.000000,192.000000) scale(0.100000,-0.100000)"
fill="#000000" stroke="none">
<path d="M890 1910 c-174 -17 -299 -71 -338 -146 -6 -12 -13 -82 -16 -157 l-5
-137 250 0 250 0 -3 -42 -3 -41 -385 -2 c-439 -3 -439 -3 -517 -87 -69 -75
-98 -152 -114 -303 -23 -218 36 -449 137 -531 57 -47 118 -64 226 -64 l88 0 0
145 c0 174 19 249 79 310 74 77 85 79 456 85 309 5 333 6 375 26 57 27 98 67
121 122 17 39 19 73 19 335 0 321 1 314 -66 380 -38 38 -67 52 -166 80 -94 28
-266 39 -388 27z m-101 -155 c57 -29 64 -104 14 -151 -78 -72 -202 40 -135
122 36 44 74 54 121 29z"/>
</g>
</svg>
