<?xml version="1.0" standalone="no"?>
<!DOCTYPE svg PUBLIC "-//W3C//DTD SVG 20010904//EN"
 "http://www.w3.org/TR/2001/REC-SVG-20010904/DTD/svg10.dtd">
<svg version="1.0" xmlns="http://www.w3.org/2000/svg"
 width="500.000000pt" height="500.000000pt" viewBox="0 0 500.000000 500.000000"
 preserveAspectRatio="xMidYMid meet">

<g transform="translate(0.000000,500.000000) scale(0.100000,-0.100000)"
fill="#000000" stroke="none">
<path d="M1576 3033 c-5 -19 -76 -352 -76 -359 0 -2 18 -4 39 -4 l39 0 13 65
c7 35 16 70 20 77 13 20 32 -7 59 -79 l22 -63 44 0 43 0 -33 77 -33 77 39 36
c32 31 38 43 38 79 0 23 -5 51 -11 63 -16 29 -70 48 -138 48 -48 0 -61 -3 -65
-17z m132 -86 c4 -36 -22 -67 -58 -67 l-27 0 10 51 c10 48 11 50 41 47 26 -2
32 -8 34 -31z"/>
<path d="M1913 3031 c-21 -13 -36 -33 -44 -60 -16 -53 -1 -89 58 -137 35 -29
43 -42 41 -62 -4 -39 -46 -51 -104 -30 l-44 16 0 -39 c0 -36 2 -38 36 -45 19
-3 58 -4 86 -2 122 12 148 145 42 217 -45 31 -53 59 -23 83 22 18 35 19 90 2
20 -6 45 44 29 60 -5 5 -38 12 -73 14 -49 2 -69 -1 -94 -17z"/>
<path d="M2822 2990 c-9 -16 -29 -35 -44 -41 -32 -13 -39 -49 -10 -49 18 0 18
-3 -1 -90 -18 -85 -18 -92 -2 -116 15 -23 22 -25 73 -22 54 3 57 5 60 31 3 24
0 27 -27 27 -16 0 -32 3 -34 8 -3 4 2 42 10 85 l16 77 38 0 c27 0 39 4 39 14
0 8 3 21 6 30 5 13 -1 16 -31 16 -36 0 -37 1 -31 30 5 27 3 30 -20 30 -17 0
-30 -9 -42 -30z"/>
<path d="M2172 2930 c-60 -59 -80 -193 -37 -240 23 -25 91 -27 117 -3 17 15
18 15 18 0 0 -24 57 -23 64 1 7 21 56 254 56 265 0 14 -58 7 -64 -9 -5 -14 -8
-14 -28 0 -38 27 -92 20 -126 -14z m116 -80 c4 -65 -24 -115 -63 -115 -24 0
-31 5 -33 24 -10 65 32 145 72 139 17 -2 21 -11 24 -48z"/>
<path d="M2443 2818 l-29 -143 34 -3 c19 -2 38 2 42 8 4 6 13 43 19 81 14 76
46 132 78 137 32 5 35 -21 13 -121 -11 -50 -20 -95 -20 -99 0 -4 17 -8 38 -8
l37 0 18 84 c23 111 22 168 -1 189 -28 26 -88 22 -117 -8 l-25 -24 0 24 c0 21
-5 25 -29 25 l-28 0 -30 -142z"/>
<path d="M3030 2934 c-74 -63 -90 -181 -32 -239 20 -20 35 -25 74 -25 61 0
100 21 126 69 40 74 38 152 -5 196 -37 36 -118 36 -163 -1z m110 -53 c23 -45
-6 -137 -47 -147 -39 -10 -57 15 -49 69 12 79 70 126 96 78z"/>
<path d="M3315 2935 c-33 -32 -34 -89 -2 -115 12 -11 35 -30 51 -43 27 -22 28
-24 10 -41 -17 -18 -53 -18 -97 0 -16 6 -18 2 -15 -27 l3 -34 62 -3 c100 -5
140 27 131 104 -2 20 -16 38 -45 59 -61 44 -52 89 13 65 36 -14 39 -13 52 15
11 23 9 27 -14 35 -14 6 -48 10 -75 10 -40 0 -55 -5 -74 -25z"/>
</g>
</svg>
